<svg xmlns="http://www.w3.org/2000/svg" xmlns:xlink="http://www.w3.org/1999/xlink" aria-hidden="true" version="1.1" style="position:absolute;width:0;height:0;overflow:hidden"><defs><symbol id="icon-film" viewBox="0 0 32 32"><path fill="none" stroke="#fff" stroke-linecap="round" stroke-linejoin="round" stroke-miterlimit="4" stroke-width="2.667" d="M26.427 2.667h-20.853c-1.605 0-2.907 1.301-2.907 2.907v0 20.853c0 1.605 1.301 2.907 2.907 2.907v0h20.853c1.605 0 2.907-1.301 2.907-2.907v0-20.853c0-1.605-1.301-2.907-2.907-2.907v0zM9.333 2.667v26.667M22.667 2.667v26.667M2.667 16h26.667M2.667 9.333h6.667M2.667 22.667h6.667M22.667 22.667h6.667M22.667 9.333h6.667" style="stroke:var(--color1, #fff)"/></symbol><symbol xmlns="http://www.w3.org/2000/svg" id="search" fill="none" viewBox="0 0 12 12"><path stroke="#fff" stroke-linecap="round" stroke-linejoin="round" d="M5.5 9.5a4 4 0 100-8 4 4 0 000 8zm5 1L8.325 8.325"/><path stroke-linecap="round" stroke-linejoin="round" d="M5.5 9.5a4 4 0 100-8 4 4 0 000 8zm5 1L8.325 8.325"/></symbol></defs></svg>